<svg width="87" height="48" viewBox="0 0 87 48" fill="none" xmlns="http://www.w3.org/2000/svg">
<path d="M20.8637 21.3305C23.0006 21.3305 24.7328 19.5545 24.7328 17.3638C24.7328 15.1731 23.0006 13.3972 20.8637 13.3972C18.7269 13.3972 16.9946 15.1731 16.9946 17.3638C16.9946 19.5545 18.7269 21.3305 20.8637 21.3305Z" stroke="white" stroke-width="0.731399" stroke-miterlimit="10"/>
<path d="M23.9587 9.27224C26.0955 9.27224 27.8278 7.49632 27.8278 5.30561C27.8278 3.11491 26.0955 1.33899 23.9587 1.33899C21.8219 1.33899 20.0896 3.11491 20.0896 5.30561C20.0896 7.49632 21.8219 9.27224 23.9587 9.27224Z" stroke="white" stroke-width="0.731399" stroke-miterlimit="10"/>
<path d="M24.1096 5.74208C24.1406 5.74002 24.1708 5.73134 24.1981 5.71662C24.2254 5.7019 24.2493 5.68148 24.2681 5.65675C24.6484 5.13258 24.1657 4.97655 24.1657 4.97655L16.6883 5.57386C16.6526 5.57847 16.6163 5.57429 16.5825 5.5617C16.5487 5.54911 16.5185 5.52847 16.4945 5.50158C16.4705 5.47469 16.4534 5.44235 16.4447 5.40737C16.436 5.37238 16.4359 5.3358 16.4445 5.3008C16.5765 4.67823 16.8052 4.08017 17.1223 3.52837C17.1608 3.45819 17.2174 3.39964 17.2862 3.35886C17.355 3.31807 17.4336 3.29655 17.5136 3.29655C17.5936 3.29655 17.6722 3.31807 17.741 3.35886C17.8099 3.39964 17.8665 3.45819 17.9049 3.52837L17.9025 4.14275C17.8999 4.18461 17.9101 4.22627 17.9317 4.26221C17.9739 4.32658 18.0307 4.38004 18.0975 4.41824C18.1291 4.43471 18.1643 4.44321 18.2 4.44301C18.2357 4.44281 18.2707 4.43393 18.3022 4.41712C18.3336 4.40031 18.3605 4.37608 18.3805 4.34654C18.4005 4.317 18.413 4.28304 18.4169 4.24758C18.4754 3.75998 18.49 2.66776 17.4709 2.62388C16.0959 2.55561 15.7375 5.15696 15.6522 6.11509C15.648 6.16026 15.6535 6.2058 15.6683 6.24868C15.6831 6.29156 15.7068 6.3308 15.738 6.36378C15.7691 6.39677 15.8069 6.42274 15.8489 6.43997C15.8908 6.45721 15.936 6.4653 15.9813 6.46372H17.1028C17.1337 6.46391 17.1642 6.47054 17.1923 6.48319C17.2205 6.49583 17.2457 6.51422 17.2664 6.53716C17.287 6.56011 17.3026 6.58711 17.3123 6.61645C17.3219 6.64578 17.3253 6.6768 17.3222 6.70752L16.7981 12.3491C16.7939 12.4019 16.7706 12.4515 16.7324 12.4883C16.6942 12.5252 16.6438 12.5467 16.5908 12.549L15.0208 12.6416C14.9874 12.6432 14.9542 12.6373 14.9234 12.6243C14.8927 12.6113 14.8653 12.5915 14.8433 12.5664C14.8212 12.5414 14.8052 12.5117 14.7962 12.4795C14.7873 12.4473 14.7857 12.4136 14.7916 12.3807C14.846 12.1099 14.8786 11.8352 14.8891 11.5591C14.8891 11.2812 14.6453 11.1788 14.5185 11.1008C14.5012 11.0892 14.4813 11.082 14.4605 11.0799C14.4397 11.0778 14.4188 11.0809 14.3995 11.0888C14.3802 11.0968 14.3631 11.1094 14.3499 11.1255C14.3366 11.1416 14.3276 11.1608 14.3235 11.1813L13.7018 14.1532C13.6938 14.188 13.6945 14.2242 13.7039 14.2586C13.7132 14.2931 13.7309 14.3247 13.7554 14.3506C13.8285 14.4257 13.9265 14.4717 14.0309 14.4799C14.0802 14.4842 14.1296 14.4719 14.1711 14.445C14.2126 14.418 14.244 14.3779 14.2601 14.3311L14.5161 13.5997C14.5294 13.5598 14.554 13.5245 14.5869 13.4981C14.6197 13.4718 14.6595 13.4554 14.7014 13.451L16.5689 13.2657C16.6032 13.2621 16.6378 13.2667 16.67 13.279C16.7022 13.2912 16.731 13.3109 16.7542 13.3364L20.7525 17.7248C20.7731 17.7477 20.7983 17.766 20.8265 17.7786C20.8546 17.7912 20.885 17.7978 20.9158 17.798H21.067C21.1134 17.7982 21.1588 17.7837 21.1964 17.7566C21.2341 17.7294 21.2622 17.691 21.2767 17.6468L23.1734 12.0248C23.1855 11.989 23.1882 11.9508 23.1814 11.9137C23.1746 11.8766 23.1584 11.8418 23.1344 11.8127L18.746 6.54662C18.7259 6.52387 18.711 6.49708 18.7022 6.46806C18.6933 6.43904 18.6908 6.40846 18.6948 6.37839V6.3272C18.7009 6.27658 18.7245 6.22968 18.7614 6.19453C18.7983 6.15938 18.8463 6.13819 18.8972 6.13459L24.1096 5.74208ZM22.1373 13.0146L20.9183 16.3571C20.905 16.3926 20.8829 16.4241 20.8541 16.4486C20.8252 16.4731 20.7905 16.4898 20.7534 16.4971C20.7163 16.5045 20.6779 16.5022 20.6418 16.4905C20.6058 16.4788 20.5734 16.458 20.5477 16.4303L17.8488 13.5047C17.822 13.4751 17.8036 13.4388 17.7957 13.3996C17.7878 13.3604 17.7906 13.3198 17.8038 13.2821C17.817 13.2444 17.8402 13.211 17.8709 13.1853C17.9016 13.1597 17.9386 13.1428 17.978 13.1365L21.8788 12.5075C21.9094 12.5045 21.9402 12.5078 21.9693 12.5173C21.9985 12.5268 22.0254 12.5422 22.0483 12.5626C22.0712 12.583 22.0897 12.6079 22.1025 12.6357C22.1152 12.6636 22.1221 12.6938 22.1226 12.7245V12.9366C22.1327 12.9614 22.1377 12.9879 22.1373 13.0146ZM21.7569 11.6762L17.7708 12.3052C17.738 12.3086 17.7047 12.3047 17.6736 12.2936C17.6424 12.2826 17.6142 12.2648 17.5908 12.2414C17.5674 12.218 17.5496 12.1897 17.5385 12.1586C17.5275 12.1275 17.5236 12.0942 17.527 12.0614L18.0146 7.42917C18.0224 7.39025 18.0405 7.35414 18.067 7.32459C18.0935 7.29505 18.1275 7.27316 18.1653 7.26121C18.2032 7.24925 18.2436 7.24767 18.2822 7.25664C18.3209 7.26559 18.3565 7.28477 18.3852 7.31215L21.8886 11.3129C21.9142 11.3427 21.9314 11.3788 21.9385 11.4175C21.9455 11.4562 21.9422 11.496 21.9288 11.533C21.9154 11.5699 21.8924 11.6026 21.8622 11.6278C21.832 11.653 21.7957 11.6697 21.7569 11.6762Z" fill="white" stroke="white" stroke-width="0.2438" stroke-miterlimit="10"/>
<path d="M65.6303 40.2972L67.3101 35.8307L63.4995 33.0465H68.3731L69.9309 28.6216L71.2012 33.127H75.8699L71.9374 35.7503L73.1272 40.2972L69.6847 37.7153" fill="#F57520"/>
<path d="M45.5347 47.7628H50.4261L64.033 0.627441H59.1417L45.5347 47.7628Z" fill="white"/>
<path fill-rule="evenodd" clip-rule="evenodd" d="M52.7383 47.7628L54.2502 43.0493H71.4145L71.7135 43.0495C72.1615 43.05 72.5882 43.0505 72.9986 43.0403C75.29 42.9169 77.3833 41.6646 78.9995 40.0182C80.6744 38.3121 81.6131 36.0157 81.6134 33.6235C81.6135 31.2156 80.6631 28.9051 78.9693 27.1955C78.1052 26.3232 77.094 25.9124 75.9914 25.7165C75.2809 25.6217 74.5645 25.5653 73.8648 25.5419C73.5559 25.5356 73.2432 25.5335 72.9276 25.5314C72.8257 25.5307 72.7235 25.53 72.6211 25.5292H58.8748L60.2088 21.2603H66.9678C68.1738 21.2603 68.8877 21.2729 69.5087 21.2839C70.5363 21.3021 71.3097 21.3158 73.6379 21.2603C74.8619 21.2312 75.6672 21.1925 76.3827 20.9992C77.54 20.5659 78.6006 19.8822 79.4828 18.9832C81.0516 17.3844 81.9309 15.2324 81.9312 12.9907C81.9313 10.7342 81.0694 8.27717 79.4828 6.67505C77.8965 5.07327 75.7531 4.82592 73.5007 4.80743H65.1002L66.0785 0.627511H72.126C72.6095 0.627511 72.9971 0.622948 73.3334 0.61899C74.4817 0.605474 75.0309 0.59901 76.7506 0.805378C76.989 0.833986 77.2073 0.877997 77.4097 0.935744C79.4346 1.29055 81.2992 2.03294 82.8138 3.56234C85.2684 6.04111 86.6069 9.49953 86.6228 12.9907C86.6076 16.4597 85.2409 19.7856 82.8138 22.2604C82.5035 22.5768 82.1776 22.8528 81.838 23.0938C82.0669 23.2688 82.2899 23.4645 82.5066 23.6832C85.1271 26.3283 86.605 29.8981 86.622 33.6235C86.6057 37.3253 85.1467 40.8745 82.5556 43.5154C80.8927 45.2102 78.8475 46.4084 76.6185 47.0711C75.3662 47.51 73.9359 47.7628 72.3039 47.7628H52.7383Z" fill="white"/>
<path d="M0.888916 0.627197H5.69138L17.1639 40.381L15.3853 47.7625L0.888916 0.627197Z" fill="white"/>
<path d="M17.2539 47.7628H21.9674L31.9281 9.16516L43.3117 47.7628L45.624 40.2033L33.7068 0.627441H29.2601L17.2539 47.7628Z" fill="white"/>
</svg>
