<svg width="32.000000" height="32.000000" viewBox="0 0 32 32" fill="none" xmlns="http://www.w3.org/2000/svg" xmlns:xlink="http://www.w3.org/1999/xlink">
	<desc>
			Created with Pixso.
	</desc>
	<defs>
		<clipPath id="clip15_4407">
			<rect id="mail" rx="0.000000" width="31.000000" height="31.000000" transform="translate(0.500000 0.500000)" fill="white" fill-opacity="0"/>
		</clipPath>
	</defs>
	<rect id="mail" rx="0.000000" width="31.000000" height="31.000000" transform="translate(0.500000 0.500000)" fill="#FFFFFF" fill-opacity="0"/>
	<g clip-path="url(#clip15_4407)">
		<path id="Vector" d="M6.66 6.66C6.3 6.66 5.96 6.81 5.72 7.05C5.48 7.29 5.33 7.63 5.33 8L5.33 24C5.33 24.73 5.93 25.33 6.66 25.33L28 25.33C28.73 25.33 29.33 24.73 29.33 24L29.33 8C29.33 7.63 29.18 7.29 28.94 7.05C28.7 6.81 28.37 6.66 28 6.66L6.66 6.66Z" stroke="#4C4C4C" stroke-opacity="1.000000" stroke-width="1.500000" stroke-linejoin="round"/>
		<path id="Vector" d="M5.72 7.05L15.44 16.78C16.48 17.82 18.17 17.82 19.21 16.78L28.94 7.05" stroke="#4C4C4C" stroke-opacity="1.000000" stroke-width="1.500000" stroke-linejoin="round" stroke-linecap="round"/>
	</g>
</svg>
