<svg width="482" height="266" viewBox="0 0 482 266" fill="none" xmlns="http://www.w3.org/2000/svg">
<path d="M112.301 117.395C124.315 117.395 134.054 107.41 134.054 95.0938C134.054 82.7774 124.315 72.793 112.301 72.793C100.288 72.793 90.5487 82.7774 90.5487 95.0938C90.5487 107.41 100.288 117.395 112.301 117.395Z" stroke="#101010" stroke-width="4.11201" stroke-miterlimit="10"/>
<path d="M129.696 49.6016C141.709 49.6016 151.448 39.6172 151.448 27.3008C151.448 14.9844 141.709 5 129.696 5C117.682 5 107.943 14.9844 107.943 27.3008C107.943 39.6172 117.682 49.6016 129.696 49.6016Z" stroke="#101010" stroke-width="4.11201" stroke-miterlimit="10"/>
<path d="M130.545 29.7541C130.719 29.7425 130.889 29.6937 131.042 29.611C131.196 29.5282 131.33 29.4134 131.436 29.2744C133.574 26.3274 130.86 25.4502 130.86 25.4502L88.8217 28.8083C88.6207 28.8343 88.4164 28.8108 88.2265 28.74C88.0366 28.6692 87.8668 28.5532 87.7318 28.402C87.5968 28.2508 87.5007 28.069 87.4518 27.8723C87.4028 27.6756 87.4026 27.47 87.451 27.2732C88.1932 23.773 89.4789 20.4107 91.2615 17.3084C91.4776 16.9139 91.7959 16.5847 92.1829 16.3554C92.5699 16.1261 93.0115 16.0051 93.4614 16.0051C93.9113 16.0051 94.3529 16.1261 94.7399 16.3554C95.127 16.5847 95.4452 16.9139 95.6613 17.3084L95.6476 20.7625C95.6332 20.9979 95.6906 21.2321 95.8121 21.4341C96.0492 21.796 96.3686 22.0966 96.7442 22.3114C96.922 22.4039 97.1198 22.4517 97.3203 22.4506C97.5208 22.4495 97.7181 22.3995 97.8949 22.305C98.0718 22.2105 98.2229 22.0743 98.3353 21.9083C98.4476 21.7422 98.5178 21.5512 98.5397 21.3519C98.8687 18.6106 98.9509 12.47 93.2215 12.2232C85.491 11.8394 83.4761 26.4645 82.9963 31.8512C82.9728 32.1052 83.0037 32.3612 83.0868 32.6023C83.17 32.8434 83.3035 33.064 83.4786 33.2494C83.6537 33.4348 83.8662 33.5809 84.1021 33.6777C84.338 33.7746 84.5919 33.8201 84.8467 33.8113H91.1518C91.3254 33.8123 91.4968 33.8496 91.6552 33.9207C91.8135 33.9918 91.9552 34.0951 92.0714 34.2242C92.1875 34.3532 92.2754 34.505 92.3295 34.6699C92.3835 34.8348 92.4026 35.0092 92.3854 35.1819L89.4385 66.8992C89.4153 67.1966 89.2839 67.4752 89.0693 67.6823C88.8546 67.8894 88.5715 68.0107 88.2734 68.0232L79.4463 68.544C79.2589 68.5532 79.0719 68.5199 78.8991 68.4468C78.7263 68.3736 78.5723 68.2624 78.4484 68.1214C78.3246 67.9805 78.2342 67.8134 78.1839 67.6326C78.1335 67.4519 78.1247 67.2621 78.1579 67.0774C78.4636 65.5548 78.6469 64.0101 78.7062 62.4583C78.7062 60.8957 77.3355 60.32 76.6227 59.8814C76.5253 59.816 76.4133 59.7756 76.2965 59.7638C76.1797 59.7521 76.0619 59.7694 75.9534 59.8141C75.8449 59.8589 75.7492 59.9297 75.6746 60.0203C75.6001 60.111 75.5491 60.2186 75.5262 60.3337L72.031 77.0422C71.9861 77.2378 71.9901 77.4414 72.0427 77.6351C72.0953 77.8288 72.1948 78.0064 72.3325 78.1524C72.7435 78.5746 73.294 78.8328 73.8814 78.8789C74.1587 78.9033 74.4361 78.8342 74.6696 78.6827C74.903 78.5312 75.0791 78.3059 75.1698 78.0428L76.609 73.9308C76.6841 73.7061 76.8222 73.5078 77.0069 73.3595C77.1916 73.2113 77.4152 73.1193 77.6507 73.0947L88.1501 72.0529C88.3427 72.0328 88.5374 72.0582 88.7184 72.1273C88.8994 72.1964 89.0615 72.3071 89.1918 72.4504L111.671 97.1225C111.787 97.2511 111.929 97.354 112.087 97.4248C112.245 97.4956 112.416 97.5327 112.589 97.5337H113.439C113.7 97.535 113.955 97.4535 114.167 97.3008C114.379 97.1481 114.536 96.9321 114.618 96.6839L125.281 65.0762C125.349 64.8752 125.365 64.6602 125.326 64.4516C125.288 64.2429 125.197 64.0475 125.062 63.8838L100.39 34.2773C100.277 34.1494 100.193 33.9988 100.144 33.8357C100.094 33.6725 100.08 33.5006 100.102 33.3315V33.0437C100.137 32.7592 100.269 32.4954 100.477 32.2978C100.684 32.1002 100.954 31.9811 101.24 31.9609L130.545 29.7541ZM119.456 70.6412L112.603 89.433C112.528 89.6324 112.404 89.8095 112.242 89.9473C112.08 90.0851 111.885 90.179 111.676 90.2202C111.467 90.2615 111.251 90.2486 111.049 90.1827C110.846 90.1169 110.664 90.0004 110.519 89.8442L95.3461 73.3962C95.1951 73.2298 95.0919 73.0257 95.0473 72.8054C95.0028 72.5852 95.0185 72.357 95.0929 72.145C95.1673 71.933 95.2977 71.745 95.4701 71.6009C95.6425 71.4569 95.8507 71.362 96.0725 71.3265L118.003 67.7902C118.175 67.7731 118.348 67.7918 118.512 67.845C118.676 67.8983 118.827 67.985 118.956 68.0996C119.085 68.2142 119.188 68.3543 119.26 68.511C119.332 68.6677 119.371 68.8377 119.374 69.0101V70.2025C119.431 70.3417 119.459 70.4909 119.456 70.6412ZM117.318 63.1162L94.9075 66.6525C94.7227 66.6719 94.5359 66.6498 94.3608 66.5877C94.1857 66.5257 94.0267 66.4254 93.8953 66.294C93.7639 66.1626 93.6636 66.0036 93.6016 65.8285C93.5395 65.6534 93.5174 65.4666 93.5368 65.2818L96.2781 39.2391C96.322 39.0203 96.4237 38.8173 96.5728 38.6512C96.7218 38.4851 96.9127 38.362 97.1255 38.2948C97.3383 38.2276 97.5653 38.2187 97.7827 38.2691C98.0001 38.3195 98.2 38.4273 98.3615 38.5812L118.058 61.0739C118.202 61.2416 118.299 61.4445 118.338 61.6619C118.378 61.8793 118.359 62.1033 118.284 62.3111C118.209 62.5188 118.08 62.7029 117.91 62.8443C117.74 62.9858 117.536 63.0796 117.318 63.1162Z" fill="#101010" stroke="#101010" stroke-width="1.37067" stroke-miterlimit="10"/>
<path d="M363.98 224.027L373.424 198.916L352 183.263H379.4L388.158 158.386L395.299 183.716H421.548L399.439 198.464L406.128 224.027L386.774 209.512" fill="#F57520"/>
<path d="M251 266H278.5L355 1H327.5L251 266Z" fill="#101010"/>
<path fill-rule="evenodd" clip-rule="evenodd" d="M291.5 266L300 239.5H396.5C397.066 239.5 397.627 239.501 398.181 239.501C400.706 239.504 403.11 239.507 405.422 239.449C418.299 238.751 430.062 231.712 439.145 222.459C448.562 212.867 453.839 199.957 453.841 186.508C453.841 172.97 448.498 159.98 438.976 150.368C434.116 145.463 428.43 143.154 422.229 142.053C418.246 141.521 414.229 141.204 410.306 141.072C408.56 141.036 406.792 141.025 405.009 141.013C404.419 141.009 403.827 141.005 403.234 141C403.233 141 403.233 141 403.232 141L326 141L333.5 117H371.5C378.28 117 382.294 117.071 385.785 117.133C391.563 117.235 395.911 117.312 409 117C415.876 116.836 420.402 116.619 424.423 115.534C430.932 113.099 436.896 109.254 441.858 104.198C450.678 95.2088 455.621 83.1104 455.623 70.5072C455.624 57.8207 450.778 44.0072 441.858 34.9999C432.938 25.9926 420.884 24.6033 408.218 24.4999L361 24.4999L366.5 0.999921H400.5C403.218 0.999921 405.397 0.974269 407.288 0.952016C413.744 0.876026 416.831 0.839685 426.5 1.99991C427.842 2.16099 429.071 2.40891 430.211 2.73428C441.592 4.72958 452.072 8.90341 460.585 17.4999C474.385 31.4358 481.91 50.8795 482 70.5072C481.914 90.0101 474.231 108.709 460.585 122.623C458.841 124.401 457.01 125.952 455.101 127.306C456.389 128.291 457.644 129.392 458.862 130.622C473.595 145.493 481.904 165.563 482 186.508C481.908 207.319 473.705 227.273 459.138 242.121C449.784 251.654 438.279 258.392 425.74 262.117C418.703 264.581 410.668 266 401.5 266H291.5Z" fill="#101010"/>
<path d="M1.52588e-05 1H27L91.5 224.5L81.5 266L1.52588e-05 1Z" fill="#101010"/>
<path d="M92 266H118.5L174.5 49L238.5 266L251.5 223.5L184.5 1H159.5L92 266Z" fill="#101010"/>
</svg>
