<svg width="65.000000" height="35.000000" viewBox="0 0 65 35" fill="none" xmlns="http://www.w3.org/2000/svg" xmlns:xlink="http://www.w3.org/1999/xlink">
	<desc>
			Created with Pixso.
	</desc>
	<defs>
		<clipPath id="clip13_3039">
			<rect id="Ресурс 2 1" rx="0.000000" width="9.656047" height="18.752491" transform="translate(54.971748 0.616095)" fill="white" fill-opacity="0"/>
		</clipPath>
		<clipPath id="clip13_3043">
			<rect id="Ресурс 2 2" rx="0.000000" width="10.320498" height="20.022985" transform="translate(54.307686 14.718635)" fill="white" fill-opacity="0"/>
		</clipPath>
		<clipPath id="clip13_3049">
			<rect id="Слой 2 (2) 2" rx="0.000000" width="64.756203" height="34.756199" transform="translate(0.121900 0.121900)" fill="white" fill-opacity="0"/>
		</clipPath>
	</defs>
	<rect id="Слой 2 (2) 2" rx="0.000000" width="64.756203" height="34.756199" transform="translate(0.121900 0.121900)" fill="#FFFFFF" fill-opacity="0"/>
	<g clip-path="url(#clip13_3049)">
		<path id="Vector" d="M15.58 15.95C13.98 15.95 12.69 14.68 12.69 13.11C12.69 11.55 13.98 10.28 15.58 10.28C17.18 10.28 18.47 11.55 18.47 13.11C18.47 14.68 17.18 15.95 15.58 15.95Z" stroke="#FFFFFF" stroke-opacity="1.000000" stroke-width="0.731399"/>
		<path id="Vector" d="M17.89 7.33C16.3 7.33 15 6.06 15 4.5C15 2.93 16.3 1.67 17.89 1.67C19.49 1.67 20.78 2.93 20.78 4.5C20.78 6.06 19.49 7.33 17.89 7.33Z" stroke="#FFFFFF" stroke-opacity="1.000000" stroke-width="0.731399"/>
		<path id="Vector" d="M18.01 4.81C18.03 4.81 18.05 4.8 18.08 4.79C18.1 4.78 18.11 4.77 18.13 4.75C18.41 4.38 18.05 4.26 18.05 4.26L12.46 4.69C12.44 4.69 12.41 4.69 12.39 4.68C12.36 4.67 12.34 4.66 12.32 4.64C12.3 4.62 12.29 4.6 12.28 4.57C12.28 4.55 12.28 4.52 12.28 4.5C12.38 4.05 12.55 3.62 12.79 3.23C12.82 3.18 12.86 3.14 12.91 3.11C12.96 3.08 13.02 3.06 13.08 3.06C13.14 3.06 13.2 3.08 13.25 3.11C13.3 3.14 13.35 3.18 13.37 3.23L13.37 3.67C13.37 3.7 13.38 3.73 13.39 3.75C13.42 3.8 13.47 3.84 13.52 3.87C13.54 3.88 13.57 3.88 13.59 3.88C13.62 3.88 13.65 3.88 13.67 3.86C13.69 3.85 13.71 3.84 13.73 3.81C13.75 3.79 13.75 3.77 13.76 3.74C13.8 3.39 13.81 2.61 13.05 2.58C12.02 2.53 11.75 4.39 11.69 5.08C11.69 5.11 11.69 5.14 11.7 5.17C11.71 5.2 11.73 5.23 11.76 5.25C11.78 5.28 11.81 5.3 11.84 5.31C11.87 5.32 11.9 5.33 11.94 5.33L12.78 5.33C12.8 5.33 12.82 5.33 12.84 5.34C12.86 5.35 12.88 5.36 12.9 5.38C12.91 5.4 12.92 5.41 12.93 5.44C12.94 5.46 12.94 5.48 12.94 5.5L12.55 9.53C12.54 9.57 12.53 9.6 12.5 9.63C12.47 9.66 12.43 9.67 12.39 9.67L11.22 9.74C11.19 9.74 11.17 9.74 11.15 9.73C11.12 9.72 11.1 9.7 11.08 9.69C11.07 9.67 11.06 9.65 11.05 9.62C11.05 9.6 11.04 9.58 11.05 9.55C11.09 9.36 11.11 9.16 11.12 8.97C11.12 8.77 10.94 8.69 10.84 8.64C10.83 8.63 10.82 8.62 10.8 8.62C10.78 8.62 10.77 8.62 10.75 8.63C10.74 8.64 10.73 8.64 10.72 8.66C10.71 8.67 10.7 8.68 10.7 8.7L10.23 10.82C10.23 10.84 10.23 10.87 10.23 10.89C10.24 10.92 10.26 10.94 10.27 10.96C10.33 11.01 10.4 11.05 10.48 11.05C10.51 11.06 10.55 11.05 10.58 11.03C10.62 11.01 10.64 10.98 10.65 10.95L10.84 10.42C10.85 10.39 10.87 10.37 10.89 10.35C10.92 10.33 10.95 10.32 10.98 10.32L12.37 10.18C12.4 10.18 12.43 10.19 12.45 10.19C12.48 10.2 12.5 10.22 12.51 10.24L15.5 13.37C15.52 13.39 15.53 13.4 15.56 13.41C15.58 13.42 15.6 13.42 15.62 13.42L15.74 13.42C15.77 13.42 15.8 13.41 15.83 13.39C15.86 13.37 15.88 13.35 15.89 13.31L17.31 9.3C17.32 9.27 17.32 9.25 17.32 9.22C17.31 9.19 17.3 9.17 17.28 9.15L14 5.39C13.99 5.37 13.98 5.35 13.97 5.33C13.96 5.31 13.96 5.29 13.96 5.27L13.96 5.23C13.97 5.19 13.99 5.16 14.01 5.13C14.04 5.11 14.08 5.09 14.12 5.09L18.01 4.81ZM16.53 10.01L15.62 12.39C15.62 12.42 15.6 12.44 15.58 12.46C15.56 12.48 15.53 12.49 15.5 12.49C15.48 12.5 15.44 12.5 15.42 12.49C15.39 12.48 15.37 12.47 15.35 12.45L13.33 10.36C13.31 10.33 13.3 10.31 13.29 10.28C13.29 10.25 13.29 10.22 13.3 10.2C13.31 10.17 13.33 10.15 13.35 10.13C13.37 10.11 13.4 10.1 13.43 10.09L16.34 9.64C16.37 9.64 16.39 9.64 16.41 9.65C16.43 9.66 16.45 9.67 16.47 9.68C16.49 9.7 16.5 9.71 16.51 9.73C16.52 9.75 16.53 9.78 16.53 9.8L16.53 9.95C16.53 9.97 16.54 9.99 16.53 10.01ZM16.25 9.05L13.27 9.5C13.25 9.5 13.23 9.5 13.2 9.49C13.18 9.48 13.16 9.47 13.14 9.45C13.12 9.44 13.11 9.42 13.1 9.39C13.09 9.37 13.09 9.35 13.09 9.32L13.46 6.02C13.46 5.99 13.48 5.96 13.5 5.94C13.51 5.92 13.54 5.9 13.57 5.9C13.6 5.89 13.63 5.89 13.66 5.89C13.69 5.9 13.71 5.91 13.73 5.93L16.35 8.79C16.37 8.81 16.38 8.84 16.39 8.86C16.39 8.89 16.39 8.92 16.38 8.95C16.37 8.97 16.35 9 16.33 9.01C16.31 9.03 16.28 9.04 16.25 9.05Z" fill="#FFFFFF" fill-opacity="1.000000" fill-rule="nonzero"/>
		<path id="Vector" d="M18.08 4.79C18.1 4.78 18.11 4.77 18.13 4.75C18.41 4.38 18.05 4.26 18.05 4.26L12.46 4.69C12.44 4.69 12.41 4.69 12.39 4.68C12.36 4.67 12.34 4.66 12.32 4.64C12.3 4.62 12.29 4.6 12.28 4.57C12.28 4.55 12.28 4.52 12.28 4.5C12.38 4.05 12.55 3.62 12.79 3.23C12.82 3.18 12.86 3.14 12.91 3.11C12.96 3.08 13.02 3.06 13.08 3.06C13.14 3.06 13.2 3.08 13.25 3.11C13.3 3.14 13.35 3.18 13.37 3.23L13.37 3.67C13.37 3.7 13.38 3.73 13.39 3.75C13.42 3.8 13.47 3.84 13.52 3.87C13.54 3.88 13.57 3.88 13.59 3.88C13.62 3.88 13.65 3.88 13.67 3.86C13.69 3.85 13.71 3.84 13.73 3.81C13.75 3.79 13.75 3.77 13.76 3.74C13.8 3.39 13.81 2.61 13.05 2.58C12.02 2.53 11.75 4.39 11.69 5.08C11.69 5.11 11.69 5.14 11.7 5.17C11.71 5.2 11.73 5.23 11.76 5.25C11.78 5.28 11.81 5.3 11.84 5.31C11.87 5.32 11.9 5.33 11.94 5.33L12.78 5.33C12.8 5.33 12.82 5.33 12.84 5.34C12.86 5.35 12.88 5.36 12.9 5.38C12.91 5.4 12.92 5.41 12.93 5.44C12.94 5.46 12.94 5.48 12.94 5.5L12.55 9.53C12.54 9.57 12.53 9.6 12.5 9.63C12.47 9.66 12.43 9.67 12.39 9.67L11.22 9.74C11.19 9.74 11.17 9.74 11.15 9.73C11.12 9.72 11.1 9.7 11.08 9.69C11.07 9.67 11.06 9.65 11.05 9.62C11.05 9.6 11.04 9.58 11.05 9.55C11.09 9.36 11.11 9.16 11.12 8.97C11.12 8.77 10.94 8.69 10.84 8.64C10.83 8.63 10.82 8.62 10.8 8.62C10.78 8.62 10.77 8.62 10.75 8.63C10.74 8.64 10.73 8.64 10.72 8.66C10.71 8.67 10.7 8.68 10.7 8.7L10.23 10.82C10.23 10.84 10.23 10.87 10.23 10.89C10.24 10.92 10.26 10.94 10.27 10.96C10.33 11.01 10.4 11.05 10.48 11.05C10.51 11.06 10.55 11.05 10.58 11.03C10.62 11.01 10.64 10.98 10.65 10.95L10.84 10.42C10.85 10.39 10.87 10.37 10.89 10.35C10.92 10.33 10.95 10.32 10.98 10.32L12.37 10.18C12.4 10.18 12.43 10.19 12.45 10.19C12.48 10.2 12.5 10.22 12.51 10.24L15.5 13.37C15.52 13.39 15.53 13.4 15.56 13.41C15.58 13.42 15.6 13.42 15.62 13.42L15.74 13.42C15.77 13.42 15.8 13.41 15.83 13.39C15.86 13.37 15.88 13.35 15.89 13.31L17.31 9.3C17.32 9.27 17.32 9.25 17.32 9.22C17.31 9.19 17.3 9.17 17.28 9.15L14 5.39C13.99 5.37 13.98 5.35 13.97 5.33C13.96 5.31 13.96 5.29 13.96 5.27L13.96 5.23C13.97 5.19 13.99 5.16 14.01 5.13C14.04 5.11 14.08 5.09 14.12 5.09L18.01 4.81C18.03 4.81 18.05 4.8 18.08 4.79ZM15.62 12.39C15.62 12.42 15.6 12.44 15.58 12.46C15.56 12.48 15.53 12.49 15.5 12.49C15.48 12.5 15.44 12.5 15.42 12.49C15.39 12.48 15.37 12.47 15.35 12.45L13.33 10.36C13.31 10.33 13.3 10.31 13.29 10.28C13.29 10.25 13.29 10.22 13.3 10.2C13.31 10.17 13.33 10.15 13.35 10.13C13.37 10.11 13.4 10.1 13.43 10.09L16.34 9.64C16.37 9.64 16.39 9.64 16.41 9.65C16.43 9.66 16.45 9.67 16.47 9.68C16.49 9.7 16.5 9.71 16.51 9.73C16.52 9.75 16.53 9.78 16.53 9.8L16.53 9.95C16.53 9.97 16.54 9.99 16.53 10.01L15.62 12.39ZM13.27 9.5C13.25 9.5 13.23 9.5 13.2 9.49C13.18 9.48 13.16 9.47 13.14 9.45C13.12 9.44 13.11 9.42 13.1 9.39C13.09 9.37 13.09 9.35 13.09 9.32L13.46 6.02C13.46 5.99 13.48 5.96 13.5 5.94C13.51 5.92 13.54 5.9 13.57 5.9C13.6 5.89 13.63 5.89 13.66 5.89C13.69 5.9 13.71 5.91 13.73 5.93L16.35 8.79C16.37 8.81 16.38 8.84 16.39 8.86C16.39 8.89 16.39 8.92 16.38 8.95C16.37 8.97 16.35 9 16.33 9.01C16.31 9.03 16.28 9.04 16.25 9.05L13.27 9.5Z" stroke="#FFFFFF" stroke-opacity="1.000000" stroke-width="0.243800"/>
		<path id="Vector" d="M49.03 29.49L50.28 26.3L47.44 24.31L51.08 24.31L52.24 21.15L53.19 24.37L56.68 24.37L53.74 26.25L54.63 29.49L52.06 27.65L49.03 29.49Z" fill="#F57520" fill-opacity="1.000000" fill-rule="nonzero"/>
		<path id="Vector" d="M34.01 34.83L37.67 34.83L47.83 1.16L44.18 1.16L34.01 34.83Z" fill="#FFFFFF" fill-opacity="1.000000" fill-rule="nonzero"/>
		<path id="Union" d="" fill="#FFFFFF" fill-opacity="1.000000" fill-rule="nonzero"/>
		<path id="Vector" d="M0.66 1.16L4.25 1.16L12.82 29.55L11.49 34.83L0.66 1.16Z" fill="#FFFFFF" fill-opacity="1.000000" fill-rule="nonzero"/>
		<path id="Vector" d="M12.89 34.83L16.41 34.83L23.85 7.26L32.35 34.83L34.08 29.43L25.18 1.16L21.85 1.16L12.89 34.83Z" fill="#FFFFFF" fill-opacity="1.000000" fill-rule="nonzero"/>
	</g>
</svg>
